<?xml version="1.0" standalone="no"?>
<!DOCTYPE svg PUBLIC "-//W3C//DTD SVG 20010904//EN"
 "http://www.w3.org/TR/2001/REC-SVG-20010904/DTD/svg10.dtd">
<svg version="1.0" xmlns="http://www.w3.org/2000/svg"
 width="1314.000000pt" height="1230.000000pt" viewBox="0 0 1314.000000 1230.000000"
 preserveAspectRatio="xMidYMid meet">

<g transform="translate(0.000000,1230.000000) scale(0.100000,-0.100000)"
fill="#000000" stroke="none">
<path d="M6804 12056 c-3 -7 -4 -42 -2 -77 l3 -64 45 -5 45 -5 3 -198 c1 -109
-1 -212 -6 -230 -7 -29 -12 -32 -50 -35 l-42 -3 0 -70 c0 -47 4 -71 13 -74 6
-2 117 -8 245 -14 l234 -11 73 55 c40 31 75 65 78 78 3 12 9 61 13 108 l6 86
-36 22 c-20 13 -36 26 -36 31 0 7 25 19 71 33 13 4 19 29 27 114 l10 108 -66
64 c-37 35 -77 67 -90 72 -13 5 -123 13 -245 19 -285 13 -287 13 -293 -4z
m481 -236 l0 -75 -55 -3 c-30 -2 -74 -1 -97 3 l-43 6 0 59 c0 92 -1 91 104 88
l91 -3 0 -75z m-31 -236 c12 -5 16 -20 16 -58 0 -89 -5 -96 -64 -96 -28 0 -68
3 -88 6 l-38 7 0 67 c0 37 3 70 7 73 8 9 146 9 167 1z"/>
<path d="M6285 12044 c-199 -16 -403 -45 -416 -60 -11 -14 -4 -99 9 -121 4 -7
28 -13 52 -15 l45 -3 7 -50 c33 -230 51 -395 45 -402 -3 -3 -21 -8 -39 -12
l-33 -7 3 -64 c2 -36 7 -69 12 -73 6 -7 279 18 318 29 9 3 12 22 10 71 l-3 67
-33 7 c-46 9 -51 16 -58 86 -6 55 -5 62 15 72 12 7 52 11 94 9 l72 -3 7 -64
c8 -72 1 -88 -40 -93 -26 -3 -27 -5 -26 -60 2 -92 -6 -88 146 -82 73 3 148 7
166 10 l33 5 -3 72 -3 72 -42 3 c-41 3 -43 5 -45 35 0 18 -2 37 -3 42 -2 6 -3
31 -4 57 -1 38 -7 52 -28 72 l-27 25 22 24 c20 21 22 34 22 130 l0 107 -57 45
c-32 25 -72 52 -90 60 -30 14 -41 15 -128 9z m73 -161 c12 -24 21 -133 11
-139 -17 -10 -171 -26 -179 -18 -5 5 -10 40 -12 79 l-3 70 75 11 c41 6 80 12
87 13 7 0 16 -7 21 -16z"/>
<path d="M7653 11968 c-16 -92 -13 -99 40 -115 42 -12 48 -17 44 -36 -3 -12
-8 -44 -12 -72 -3 -27 -10 -70 -15 -95 -5 -25 -14 -90 -21 -145 -7 -55 -17
-106 -22 -112 -6 -9 -22 -11 -47 -7 -42 7 -40 11 -55 -93 -6 -39 -5 -44 19
-53 14 -5 49 -12 78 -15 97 -11 420 -74 490 -95 33 -10 44 1 53 55 4 22 14 66
22 98 9 32 13 60 10 63 -9 9 -170 43 -178 38 -4 -2 -11 -18 -14 -35 -7 -30 -8
-31 -49 -24 -22 4 -60 11 -84 15 -23 4 -45 10 -49 13 -3 4 0 38 7 77 15 80 11
78 120 55 40 -8 75 -13 80 -10 10 6 33 133 26 144 -3 5 -29 11 -58 15 -29 4
-68 12 -87 18 l-34 10 7 67 c4 36 11 70 16 75 5 5 46 1 99 -9 l91 -19 0 -42
c0 -42 1 -43 38 -49 20 -3 51 -10 68 -15 44 -14 81 -12 87 5 8 18 47 184 47
195 0 5 -17 14 -37 19 -76 20 -210 49 -278 61 -38 6 -88 15 -110 20 -35 8
-255 40 -277 40 -4 0 -11 -19 -15 -42z"/>
<path d="M5360 11900 c-90 -21 -115 -30 -125 -44 -7 -9 -16 -135 -24 -323 -7
-181 -17 -313 -23 -320 -6 -7 -18 -13 -28 -13 -30 0 -41 -23 -28 -61 31 -95
28 -91 67 -84 20 3 47 10 61 14 14 5 43 14 65 20 148 40 155 43 155 72 0 15
-5 31 -10 34 -6 4 -8 10 -5 15 3 5 1 20 -5 34 -8 21 -16 26 -45 26 -33 0 -35
2 -35 35 0 40 13 50 83 60 40 6 50 4 62 -11 18 -24 19 -54 2 -54 -7 0 -21 -6
-30 -13 -16 -11 -16 -16 -1 -81 l17 -68 31 6 c17 3 51 11 76 17 25 5 65 14 90
19 25 4 62 11 83 15 21 5 41 13 43 20 3 6 -1 38 -8 71 l-14 59 -44 0 -44 0
-61 115 c-137 258 -169 316 -186 342 -11 14 -19 29 -19 34 0 11 -50 74 -58 73
-4 -1 -23 -5 -42 -9z m44 -336 c20 -8 21 -54 2 -54 -8 0 -16 13 -18 30 -3 17
-3 30 -2 30 1 0 9 -3 18 -6z"/>
<path d="M8509 11798 c-6 -24 -15 -53 -20 -65 -12 -31 -1 -53 25 -53 12 0 31
-7 43 -15 18 -12 20 -20 14 -38 -5 -12 -14 -42 -21 -67 -7 -25 -16 -56 -20
-70 -4 -14 -13 -45 -20 -70 -26 -93 -33 -116 -41 -138 -5 -13 -9 -32 -9 -44 0
-19 -4 -20 -49 -14 -30 4 -52 2 -56 -4 -13 -21 -35 -124 -28 -130 4 -4 26 -12
48 -18 22 -6 94 -28 160 -48 66 -21 122 -38 124 -38 8 -2 51 135 46 145 -4 5
-14 9 -24 9 -36 0 -43 24 -26 82 24 82 26 84 77 68 131 -42 140 -51 115 -120
-24 -69 -32 -76 -65 -64 -17 6 -35 9 -41 5 -5 -4 -19 -35 -29 -69 -23 -72 -25
-70 73 -102 39 -13 74 -27 79 -32 6 -4 16 -8 23 -8 7 0 37 -11 67 -25 30 -14
61 -25 69 -25 14 0 39 49 58 113 7 26 5 29 -32 44 -46 18 -46 19 -10 113 24
61 27 100 9 118 -14 14 5 39 34 44 12 2 25 10 29 18 16 31 69 173 69 186 0 22
-109 181 -128 187 -22 7 -131 46 -157 56 -42 17 -354 111 -368 111 -3 0 -11
-19 -18 -42z m440 -257 c25 -14 26 -26 6 -65 -8 -15 -15 -34 -15 -40 0 -7 -6
-20 -12 -29 -12 -16 -19 -15 -98 12 -46 16 -86 35 -88 41 -6 17 19 103 35 122
14 15 19 15 83 -7 37 -13 77 -28 89 -34z"/>
<path d="M4630 11683 c-21 -7 -120 -43 -150 -55 -14 -6 -34 -14 -45 -18 -11
-4 -33 -13 -50 -20 -33 -14 -69 -28 -100 -40 -79 -30 -115 -52 -115 -68 1 -23
38 -105 52 -114 7 -3 20 -2 29 3 10 5 28 9 41 9 23 0 26 -4 64 -95 9 -22 27
-64 40 -93 13 -29 24 -55 24 -57 0 -2 14 -34 31 -71 35 -78 34 -104 -3 -122
-16 -7 -28 -18 -28 -25 1 -19 54 -122 63 -120 11 2 366 141 402 157 18 8 39
31 53 57 13 24 33 60 44 80 l20 36 -32 94 c-34 101 -48 119 -92 119 -35 0 -36
19 -3 50 14 13 25 28 25 34 0 21 -51 170 -65 193 -9 13 -22 23 -29 23 -8 0
-34 8 -58 18 -50 22 -97 32 -118 25z m36 -161 c7 -4 19 -27 27 -52 8 -25 18
-53 22 -62 8 -19 -8 -29 -101 -63 -69 -25 -70 -25 -97 35 -36 82 -34 88 43
117 93 36 91 35 106 25z m131 -348 c13 -32 22 -65 21 -72 -4 -18 -116 -64
-147 -60 -20 2 -28 14 -47 65 -17 50 -19 64 -9 73 16 14 137 59 150 56 5 -1
20 -29 32 -62z"/>
<path d="M3259 11006 c-113 -74 -126 -88 -147 -151 -38 -118 -40 -104 19 -191
29 -44 59 -84 67 -90 8 -6 53 -16 101 -22 l86 -12 48 30 c27 17 53 30 58 30 5
0 9 4 9 8 0 5 18 17 40 27 37 17 41 17 58 2 19 -17 67 -105 61 -111 -29 -24
-131 -86 -141 -86 -7 0 -19 9 -26 20 -17 28 -34 25 -97 -16 -64 -43 -69 -64
-26 -112 25 -27 37 -32 73 -32 24 0 58 -4 77 -10 27 -7 41 -5 74 11 22 12 45
25 51 30 6 5 38 27 71 47 l60 38 27 89 28 89 -26 45 c-15 25 -36 63 -48 85
-29 54 -51 65 -147 76 l-84 10 -82 -55 c-46 -30 -89 -55 -96 -55 -14 0 -87
101 -87 119 0 9 137 101 152 101 4 0 15 -11 24 -25 9 -14 21 -25 28 -25 6 0
35 16 63 35 29 19 56 35 62 35 30 0 10 79 -27 106 -9 6 -45 14 -81 18 -36 3
-75 9 -86 12 -15 4 -55 -17 -136 -70z"/>
<path d="M6330 11000 c-80 -11 -119 -24 -175 -54 -70 -39 -104 -73 -160 -163
-1 -2 -103 -17 -230 -34 -44 -5 -98 -14 -120 -19 -22 -5 -78 -14 -125 -21 -47
-6 -94 -15 -105 -19 -11 -4 -47 -13 -80 -20 -61 -12 -119 -26 -165 -40 -14 -4
-45 -13 -70 -20 -615 -174 -1225 -501 -1733 -928 -208 -175 -520 -499 -661
-687 -31 -40 -63 -80 -70 -88 -8 -8 -68 -95 -134 -193 -162 -245 -190 -292
-318 -554 -47 -96 -90 -184 -94 -195 -4 -11 -15 -36 -23 -55 -48 -110 -112
-288 -167 -470 -12 -41 -26 -86 -30 -100 -5 -14 -13 -47 -20 -75 -6 -27 -15
-66 -20 -85 -9 -35 -22 -95 -39 -172 -9 -41 -19 -102 -41 -253 -15 -100 -50
-534 -50 -615 0 -37 3 -95 6 -129 l7 -62 39 38 c21 21 54 61 73 88 l35 50 -50
100 c-57 113 -70 170 -70 296 0 70 5 103 26 161 48 131 114 213 312 383 90 78
93 81 112 150 154 541 373 1007 667 1414 653 907 1594 1516 2680 1735 94 19
206 38 249 42 67 6 77 5 71 -8 -3 -9 -13 -47 -22 -84 -25 -101 -25 -101 -107
-114 -878 -145 -1670 -556 -2290 -1186 -173 -177 -263 -282 -396 -466 -145
-198 -192 -275 -326 -523 -90 -166 -276 -625 -300 -742 l-7 -32 83 1 c102 1
170 -17 301 -83 53 -27 104 -49 113 -49 8 0 54 26 102 58 104 71 211 138 522
330 227 140 237 146 298 150 39 3 62 0 62 -6 0 -6 -42 -34 -92 -63 -119 -67
-632 -386 -778 -483 l-112 -75 -111 59 c-62 32 -139 66 -172 76 -157 45 -332
-2 -474 -129 -38 -34 -99 -88 -135 -120 -172 -153 -241 -348 -191 -540 15 -59
87 -211 105 -222 20 -12 9 -39 -47 -117 -174 -242 -440 -407 -783 -487 -136
-32 -267 -51 -347 -51 -96 0 -165 -38 -223 -124 -20 -30 -45 -77 -54 -105 -19
-60 -22 -226 -4 -268 39 -90 104 -148 193 -172 105 -28 408 41 652 150 24 11
45 19 48 19 5 0 74 32 255 118 128 60 516 274 684 377 116 71 150 85 158 68 3
-8 144 -129 258 -224 64 -53 282 -218 323 -244 45 -29 30 -36 -25 -11 -154 68
-373 219 -531 365 l-49 45 -43 -23 c-72 -38 -84 -54 -78 -103 9 -71 89 -387
134 -524 340 -1048 1085 -1916 2077 -2417 145 -74 266 -127 391 -173 35 -13
69 -28 75 -33 16 -14 82 -208 73 -217 -9 -9 -101 22 -284 95 -721 287 -1344
757 -1825 1376 -372 479 -637 1030 -789 1645 -24 96 -45 177 -46 179 -5 7
-286 -139 -299 -156 -9 -10 -8 -30 2 -79 38 -182 173 -596 244 -749 15 -33 36
-80 46 -105 19 -46 137 -281 191 -380 16 -30 63 -107 103 -170 40 -63 78 -124
84 -135 6 -11 13 -22 16 -25 3 -3 17 -21 30 -40 575 -837 1471 -1497 2450
-1805 25 -8 83 -26 130 -40 85 -26 85 -26 129 -91 119 -174 221 -222 450 -211
137 6 235 32 377 97 l69 32 190 -1 c184 -2 522 19 655 40 247 38 322 52 455
84 211 49 473 127 560 165 11 5 72 29 135 53 125 49 421 188 485 229 22 13 63
37 90 52 110 61 235 141 235 151 0 9 -388 135 -415 135 -5 0 -79 -36 -165 -79
-526 -268 -1035 -413 -1637 -466 -242 -21 -223 -25 -222 34 1 32 -6 65 -19 92
-12 23 -19 45 -17 49 2 4 66 10 142 14 514 26 1051 160 1519 380 158 75 162
59 -31 126 -60 21 -211 75 -334 120 l-224 82 -81 -17 c-267 -56 -741 -187
-1011 -279 -214 -73 -193 -74 -243 19 l-27 50 -5 -85 -5 -84 -80 -34 c-159
-66 -402 -192 -510 -264 -122 -82 -248 -201 -285 -271 -14 -26 -28 -47 -32
-47 -3 0 -9 18 -13 39 -8 50 21 109 107 217 71 90 52 84 -64 -19 -63 -56 -88
-65 -88 -31 0 35 65 137 134 211 52 57 12 36 -73 -37 -60 -52 -83 -67 -86 -55
-3 8 -7 21 -9 29 -6 18 60 121 115 181 23 25 38 45 33 45 -9 0 -85 -59 -137
-107 -15 -14 -34 -22 -42 -19 -34 13 -10 68 84 190 25 33 38 56 30 51 -25 -15
-93 -68 -126 -98 -31 -29 -53 -29 -53 0 0 27 60 129 101 171 74 78 36 63 -72
-28 -39 -33 -75 -60 -80 -60 -15 0 -10 39 10 78 11 21 44 70 75 110 31 39 52
72 47 72 -9 0 -149 -118 -170 -143 -16 -20 -41 -22 -41 -4 1 38 77 165 138
230 20 20 32 37 27 37 -14 0 -76 -50 -152 -123 -62 -60 -74 -67 -80 -52 -10
27 60 154 125 226 30 32 51 59 47 59 -15 0 -103 -71 -153 -124 -61 -65 -77
-70 -68 -24 28 140 223 304 558 468 151 75 427 190 491 205 20 5 25 11 17 19
-5 7 -80 46 -165 86 -86 40 -154 78 -152 84 2 6 21 15 43 19 36 8 53 2 239
-88 110 -54 272 -130 360 -170 88 -40 192 -87 230 -105 310 -143 940 -399
1370 -556 343 -126 1179 -402 1445 -478 73 -21 326 -90 420 -115 346 -93 769
-142 1035 -122 568 44 880 296 902 729 13 267 -81 497 -288 702 -224 221 -485
351 -984 490 -82 23 -199 57 -260 75 -60 18 -182 54 -270 80 -238 70 -686 204
-715 214 -14 5 -130 42 -257 82 -128 40 -233 76 -233 79 0 4 33 11 73 14 53 5
85 3 117 -8 25 -8 68 -21 95 -29 28 -8 115 -35 195 -60 161 -50 465 -142 698
-211 85 -25 161 -46 170 -46 10 0 22 9 27 19 163 316 246 504 323 736 199 593
256 1243 166 1875 -74 520 -248 1026 -505 1472 -94 163 -114 201 -126 242 -4
16 -20 37 -35 45 -15 9 -55 53 -88 99 -33 45 -63 82 -68 82 -4 0 -78 -36 -162
-80 -85 -45 -279 -143 -430 -219 -261 -131 -277 -138 -320 -132 -25 3 -44 10
-43 15 0 5 81 51 180 101 378 193 722 370 808 415 50 26 189 98 310 160 121
62 263 135 315 163 90 47 122 65 223 121 23 13 71 39 107 58 143 77 329 194
367 231 43 41 46 52 33 149 -41 317 -157 636 -318 873 -114 168 -219 268 -361
342 l-72 37 -57 -19 c-57 -20 -188 -75 -312 -133 -36 -16 -90 -41 -120 -55
-30 -14 -116 -54 -190 -90 -74 -35 -171 -81 -215 -102 -80 -38 -265 -127 -580
-280 -362 -176 -974 -479 -1788 -884 -847 -422 -847 -423 -884 -410 l-37 12
27 21 c15 12 68 42 117 66 50 24 90 47 90 50 0 3 -28 16 -62 29 -261 101 -559
292 -639 408 -31 44 -53 109 -43 125 3 4 46 -28 96 -73 121 -107 142 -115 69
-28 -86 102 -133 191 -116 218 3 6 49 -28 107 -79 56 -50 106 -90 111 -90 5 0
-10 21 -33 48 -80 91 -145 222 -110 222 6 0 44 -29 84 -64 41 -35 84 -70 97
-77 23 -12 23 -11 9 7 -8 10 -32 39 -53 64 -67 78 -104 170 -68 170 5 0 16 -6
23 -12 18 -17 85 -68 128 -98 32 -23 31 -19 -19 40 -61 74 -97 140 -88 164 9
23 22 20 59 -12 18 -16 56 -44 83 -62 51 -34 51 -32 -8 35 -36 40 -87 124 -87
142 1 47 16 46 81 -7 86 -70 113 -83 72 -37 -57 65 -113 155 -113 182 0 41 27
42 68 3 46 -44 112 -93 112 -83 0 4 -23 32 -51 63 -70 78 -103 136 -95 167 4
14 10 25 15 25 5 0 36 -25 70 -55 33 -30 71 -60 83 -66 22 -12 22 -11 9 7 -8
10 -27 33 -42 49 -15 17 -43 56 -64 88 -29 47 -36 66 -33 99 3 48 20 59 36 24
18 -39 141 -165 217 -221 39 -29 111 -76 162 -104 l92 -53 3 -81 3 -82 32 50
c18 28 34 55 36 60 4 11 21 5 217 -75 272 -112 904 -300 1006 -300 25 0 244
107 244 120 0 7 -146 68 -275 114 -158 56 -479 144 -592 162 -24 4 -43 11 -43
16 0 5 19 45 41 89 47 89 44 87 149 65 269 -57 537 -149 936 -321 29 -13 38
-10 212 75 100 49 182 92 182 97 0 4 -17 18 -38 29 -64 37 -255 134 -263 134
-4 0 -40 16 -81 35 -109 50 -338 138 -458 175 -58 17 -132 40 -165 50 -92 29
-255 66 -418 97 -83 15 -155 34 -165 43 -24 21 -109 80 -116 80 -3 0 -27 14
-53 30 -145 92 -412 152 -573 130z m190 -95 c127 -15 310 -91 435 -180 72 -51
185 -167 185 -189 0 -20 -16 -21 -27 -2 -10 17 -95 86 -106 86 -5 0 10 -21 32
-46 56 -63 56 -77 0 -48 -24 12 -34 13 -45 3 -11 -9 -27 -7 -76 11 -117 43
-182 81 -240 141 -32 33 -63 59 -69 59 -30 0 -50 -32 -119 -184 -45 -102 -80
-166 -88 -166 -31 0 -222 153 -222 178 0 6 23 18 50 27 28 9 50 19 50 22 0 3
-31 2 -70 -2 -60 -6 -70 -5 -70 8 0 24 57 63 125 86 72 24 42 27 -60 6 -80
-17 -95 -18 -95 -7 0 15 95 78 152 102 32 13 57 24 55 26 -3 3 -108 -13 -139
-21 -72 -19 7 52 87 78 78 25 122 27 255 12z m3849 -246 c212 -141 428 -531
499 -899 27 -140 31 -175 24 -187 -21 -31 -712 -415 -1122 -623 -96 -49 -310
-159 -475 -245 -572 -297 -896 -456 -924 -453 -14 2 -25 7 -24 12 1 5 153 86
337 179 185 94 335 172 333 174 -2 2 -37 -11 -78 -28 -74 -32 -103 -45 -476
-223 -165 -78 -208 -95 -233 -90 -41 9 -38 19 13 44 23 12 53 30 67 41 14 11
-17 -1 -68 -26 l-94 -46 -81 16 c-247 49 -798 196 -824 219 -12 11 -63 150
-77 208 -8 36 11 46 24 12 16 -42 91 -188 102 -199 5 -5 0 15 -12 45 -25 64
-60 179 -60 197 0 27 17 11 41 -39 40 -85 91 -179 95 -176 2 2 -12 43 -31 90
-36 91 -54 168 -38 168 5 0 33 -50 63 -111 30 -61 58 -113 61 -115 4 -2 -13
52 -37 121 -27 79 -39 127 -33 131 13 8 6 19 74 -119 60 -121 93 -169 51 -75
-31 70 -78 219 -71 226 9 9 20 -8 76 -117 29 -57 55 -99 57 -93 2 6 -4 25 -14
43 -20 39 -64 167 -64 186 0 34 23 4 76 -97 31 -61 58 -109 60 -107 2 1 -15
51 -37 110 -21 59 -39 114 -39 123 0 35 25 3 79 -104 59 -115 86 -157 56 -87
-46 107 -85 229 -76 238 6 6 20 -12 39 -49 39 -77 112 -201 112 -191 0 4 -8
24 -19 45 -20 39 -81 207 -81 223 0 29 26 -4 84 -108 36 -65 66 -115 66 -112
0 4 -18 52 -39 106 -22 55 -43 112 -46 126 -15 58 16 22 76 -88 34 -63 63
-114 65 -112 2 2 -17 54 -41 117 -25 62 -45 119 -45 127 0 32 20 6 80 -106 64
-119 89 -153 52 -69 -28 61 -72 186 -72 204 0 31 17 9 73 -91 32 -58 60 -105
63 -105 4 0 -11 43 -26 75 -40 84 -63 174 -40 160 5 -3 34 -51 65 -105 31 -55
58 -100 60 -100 3 0 -5 24 -17 53 -62 154 -73 187 -60 187 9 0 74 -106 119
-193 32 -60 20 -16 -22 87 -45 108 -52 136 -37 136 7 0 30 -36 128 -205 26
-44 33 -41 9 5 -25 48 -85 201 -85 216 0 31 18 9 74 -86 31 -55 59 -100 61
-100 5 0 -7 44 -16 55 -4 6 -22 48 -38 93 -38 104 -21 109 34 11 22 -39 49
-86 59 -105 34 -59 27 -32 -20 85 -43 104 -50 141 -23 114 6 -6 38 -56 70
-110 57 -95 74 -114 45 -50 -31 68 -76 180 -76 188 0 32 43 -24 138 -181 34
-55 26 -31 -28 89 -28 61 -50 115 -50 121 0 28 24 1 80 -90 34 -55 63 -100 66
-100 3 0 -10 32 -60 144 -27 61 -32 86 -17 86 8 0 77 -104 109 -166 8 -14 16
-23 19 -21 3 3 -14 46 -36 96 -46 103 -54 138 -22 106 11 -11 45 -60 76 -110
62 -97 65 -89 9 26 -37 75 -53 129 -38 129 5 -1 32 -37 59 -81 28 -44 56 -88
62 -97 20 -27 -10 55 -46 126 -17 34 -31 66 -31 72 0 27 25 2 76 -77 88 -136
90 -132 15 29 -17 37 -31 72 -31 78 0 27 23 2 81 -85 34 -52 63 -95 65 -95 4
0 -12 43 -25 67 -22 40 -61 136 -61 150 0 24 16 6 81 -92 34 -52 64 -93 65
-92 2 2 -15 41 -37 87 -58 119 -61 130 -45 130 8 0 40 -40 72 -90 32 -49 59
-88 61 -86 2 2 -17 47 -42 101 -50 108 -49 105 -35 105 12 0 110 -130 110
-146 0 -6 10 -19 22 -30 12 -10 19 -14 16 -9 -12 23 -98 207 -98 211 0 31 82
-71 141 -176 4 -8 10 -12 12 -10 3 3 -17 49 -44 104 -27 54 -49 103 -49 108 0
24 28 -4 81 -81 31 -45 60 -85 63 -89 9 -8 -15 48 -53 126 -63 128 -18 100 76
-47 56 -87 54 -64 -4 53 -26 53 -44 99 -39 103 8 9 28 -15 88 -104 23 -34 44
-60 46 -58 3 2 -15 45 -38 95 -24 49 -40 93 -36 97 7 7 13 0 94 -115 28 -42
52 -71 52 -66 0 5 -21 50 -47 101 -73 144 -41 136 59 -14 23 -35 43 -61 45
-59 2 2 -17 47 -44 99 -26 53 -44 100 -39 104 8 9 24 -9 98 -114 28 -40 52
-73 54 -73 2 0 -19 45 -46 100 -50 100 -57 120 -42 120 8 0 79 -94 116 -153
36 -58 25 -17 -19 70 -25 50 -45 96 -45 103 0 21 45 -27 96 -102 26 -38 49
-67 51 -65 2 2 -17 43 -42 90 -78 148 -47 145 56 -5 62 -90 59 -72 -9 59 -18
34 -32 67 -32 73 0 31 36 -9 142 -160 26 -37 11 -1 -44 108 -27 50 -43 92 -37
92 14 0 36 -26 100 -117 29 -40 54 -73 56 -73 3 0 -18 43 -46 96 -28 53 -51
104 -51 112 0 24 45 -23 101 -105 27 -40 52 -73 54 -73 3 0 -18 45 -45 101
-28 55 -50 105 -48 111 4 12 66 -60 117 -134 17 -27 34 -48 36 -48 2 0 -18 45
-46 101 -28 55 -48 103 -44 107 8 8 52 -42 107 -125 23 -34 44 -61 46 -59 4 5
-52 116 -84 168 -28 44 -29 48 -10 48 13 0 121 -138 154 -195 6 -11 11 -15 12
-10 0 6 -25 55 -55 110 -31 55 -53 106 -50 114 7 17 26 -4 113 -128 28 -42 52
-72 52 -68 0 7 -78 158 -101 195 -7 12 -10 24 -6 28 11 11 41 -21 104 -111 32
-46 59 -82 61 -80 2 2 -22 51 -53 110 -31 59 -54 110 -50 113 9 9 63 -55 116
-135 23 -35 43 -63 45 -63 7 0 -46 114 -76 162 -34 55 -35 58 -17 58 12 0 89
-95 132 -163 10 -15 19 -26 21 -24 5 5 -32 82 -73 150 -71 117 -1 65 89 -66
22 -32 42 -56 45 -53 3 3 -18 48 -46 101 -28 52 -51 98 -51 100 0 28 106 -100
144 -173 10 -19 20 -31 23 -28 4 3 -19 56 -51 117 -31 61 -54 114 -51 117 6 6
9 2 86 -99 31 -41 64 -89 73 -106 9 -18 18 -33 21 -33 9 0 -20 66 -66 151 -27
50 -49 94 -49 100 0 28 25 0 121 -136 27 -38 49 -66 49 -61 0 5 -23 53 -51
108 -28 55 -48 102 -45 105 8 8 51 -45 113 -139 31 -48 58 -86 61 -84 2 2 -22
55 -52 117 -53 105 -61 129 -38 115 12 -7 136 -194 147 -221 5 -14 9 -16 12
-7 3 8 -18 61 -46 119 -56 114 -55 113 -42 113 9 0 131 -176 131 -189 0 -4 11
-22 25 -41 14 -19 25 -32 25 -29 0 11 -44 117 -71 171 -29 57 -32 77 -11 64
14 -8 89 -136 140 -236 51 -100 47 -67 -9 73 -43 110 -42 107 -30 107 10 0
109 -192 139 -270 34 -89 25 -29 -13 90 -62 190 -165 372 -288 506 -41 45 -55
54 -74 50 -30 -8 -430 -198 -978 -466 -731 -356 -982 -480 -1827 -902 l-917
-458 -58 22 c-32 12 -62 25 -67 29 -6 5 21 22 60 40 313 140 472 215 754 355
395 197 831 434 799 434 -4 0 -118 -54 -255 -121 -137 -67 -292 -141 -344
-166 -52 -25 -310 -153 -573 -284 -263 -132 -488 -239 -500 -239 -13 0 -32 6
-43 14 -17 13 61 54 939 490 526 262 959 476 961 476 2 0 142 68 312 151 274
134 451 219 839 404 61 29 166 80 235 112 102 49 428 197 530 241 43 18 66 13
129 -29z m-3678 -114 c73 -48 179 -90 283 -114 97 -21 101 -23 93 -46 -5 -12
-24 -15 -89 -16 l-83 0 38 -14 c21 -8 61 -17 88 -21 68 -9 65 -31 -7 -39 -30
-4 -78 -4 -105 -1 -74 10 -52 -8 36 -29 41 -9 75 -21 75 -26 0 -17 -24 -22
-102 -21 -47 1 -77 -2 -73 -8 8 -13 73 -30 113 -30 22 0 32 -5 32 -15 0 -18
-41 -29 -85 -22 -47 8 -376 159 -388 178 -8 13 2 46 43 138 30 66 59 121 66
121 7 0 36 -16 65 -35z m-1946 -1460 c607 -60 1312 -248 2111 -565 136 -54
521 -173 749 -231 370 -95 656 -149 945 -179 58 -6 144 -15 191 -20 285 -32
593 7 842 106 49 20 91 33 94 30 14 -13 -18 -55 -60 -78 -76 -43 -238 -109
-327 -133 -47 -13 -74 -24 -60 -24 30 -1 255 35 317 51 24 6 46 8 49 5 3 -3
-1 -19 -10 -35 -22 -42 -195 -125 -371 -177 -94 -28 -68 -31 76 -10 104 16
174 30 202 41 25 9 21 -20 -5 -50 -37 -41 -235 -128 -376 -166 -24 -6 -42 -13
-40 -16 6 -5 230 23 283 36 72 17 77 15 58 -24 -14 -30 -32 -41 -127 -85 -61
-27 -144 -59 -185 -70 -82 -23 -97 -31 -58 -31 37 0 223 28 271 41 47 13 62 2
46 -33 -8 -17 -37 -37 -93 -63 -100 -46 -264 -105 -294 -105 -13 0 -23 -4 -23
-10 0 -15 238 18 329 46 96 29 69 -36 -37 -90 -100 -50 -186 -84 -282 -111
-64 -18 -77 -24 -51 -24 44 -1 253 34 317 54 61 18 74 19 74 2 0 -41 -194
-141 -400 -206 l-65 -21 67 5 c58 5 229 36 281 51 30 9 19 -14 -30 -61 -84
-81 -237 -140 -428 -164 -129 -16 -239 -23 -252 -14 -8 6 -9 37 -3 118 5 60 8
111 6 112 -2 2 -34 -50 -73 -114 l-70 -118 -74 3 c-551 20 -1344 206 -2004
470 -153 61 -557 196 -780 261 -191 56 -620 161 -715 176 -65 10 -70 17 -71
104 l-1 76 -17 -50 c-37 -108 -36 -106 -83 -99 -24 4 -58 13 -77 20 l-34 14 6
95 c3 52 2 95 -1 95 -4 -1 -22 -24 -40 -53 -18 -29 -43 -65 -56 -80 l-22 -28
-100 12 c-132 16 -490 6 -604 -16 -47 -9 -146 -34 -221 -56 -155 -45 -149 -44
-149 -25 0 50 153 134 345 190 49 14 91 29 94 32 10 11 -126 -5 -232 -27 -54
-11 -101 -18 -104 -16 -10 11 30 69 60 88 46 28 220 95 302 115 39 10 62 20
53 22 -22 4 -241 -24 -285 -37 -40 -12 -45 -5 -27 37 11 27 28 40 89 68 83 38
246 94 276 94 10 0 19 5 19 10 0 7 -19 8 -52 5 -83 -10 -189 -24 -230 -31 -32
-6 -38 -4 -38 10 0 29 18 54 52 71 53 27 169 72 231 91 31 10 57 22 57 27 0
10 -63 4 -197 -20 -51 -9 -96 -13 -100 -9 -9 9 17 56 37 68 43 24 174 79 235
98 39 12 79 26 90 31 30 14 -126 2 -210 -17 -38 -8 -82 -17 -97 -21 -33 -6
-37 10 -12 45 26 38 267 143 363 158 42 7 67 24 34 24 -53 -1 -237 -31 -293
-49 -36 -11 -71 -21 -77 -21 -24 0 -13 39 17 60 45 32 225 114 308 140 39 13
72 25 72 28 0 11 -151 -9 -244 -33 -54 -14 -103 -25 -108 -25 -19 0 34 59 79
88 93 59 236 99 448 125 79 10 366 5 500 -8z m2425 -450 c23 -53 40 -98 36
-102 -3 -3 -16 -1 -29 4 -34 16 -88 193 -59 193 5 0 28 -43 52 -95z m-77 5
c31 -69 33 -80 12 -80 -19 0 -43 46 -51 99 -9 59 7 51 39 -19z m-67 -6 c17
-40 15 -48 -9 -38 -18 6 -25 30 -19 57 6 25 11 21 28 -19z m-2586 -1023 c47
-17 96 -31 109 -31 37 0 275 -51 285 -61 6 -5 2 -12 -10 -16 -60 -24 -1218
-727 -1451 -880 -50 -33 -87 -40 -87 -18 1 10 391 265 601 392 61 37 110 69
109 71 -2 1 -48 -18 -102 -44 -180 -84 -199 -92 -254 -114 -108 -43 -176 -62
-240 -67 -57 -4 -68 -2 -87 16 -13 13 -23 34 -23 50 0 29 36 105 71 149 11 14
17 27 15 29 -3 3 -100 -59 -217 -137 -207 -137 -250 -158 -256 -120 -1 8 14
26 35 39 20 13 132 86 247 161 235 152 620 391 855 529 l155 91 80 -5 c54 -3
107 -14 165 -34z m730 -184 c-8 -8 -82 -56 -165 -107 -82 -52 -159 -100 -170
-108 -38 -26 -818 -507 -1073 -661 -101 -61 -189 -111 -196 -111 -7 0 -21 7
-32 15 -23 19 -54 -2 276 189 146 84 405 235 575 336 171 100 335 197 365 215
30 17 136 79 235 138 170 100 219 125 185 94z m297 -62 c43 -13 125 -50 183
-80 218 -116 391 -177 554 -195 50 -6 110 -18 134 -27 76 -29 50 -43 -79 -43
-203 0 -424 77 -728 254 -62 36 -115 66 -117 66 -6 0 -222 -132 -539 -330
-170 -106 -375 -233 -455 -283 -80 -49 -165 -103 -190 -119 -26 -16 -82 -50
-125 -76 -44 -26 -79 -51 -78 -56 5 -33 1238 -668 1812 -934 79 -36 82 -50 15
-59 -33 -4 -62 6 -183 61 -174 81 -900 444 -1101 551 -360 191 -680 368 -680
376 0 7 383 248 1015 639 110 68 256 159 325 202 69 43 133 78 142 78 9 0 52
-11 95 -25z m-2797 -368 c136 -67 165 -86 152 -99 -8 -8 -40 6 -112 47 -106
60 -158 83 -225 96 -34 7 -30 7 25 6 55 -2 80 -10 160 -50z m-96 -114 c60 -30
168 -89 240 -130 72 -42 146 -84 164 -94 17 -11 49 -29 70 -41 20 -12 66 -38
102 -58 36 -20 83 -47 105 -60 128 -74 495 -279 610 -340 145 -77 214 -114
265 -142 25 -14 92 -50 150 -80 58 -31 141 -75 185 -98 121 -65 747 -379 853
-429 51 -24 95 -48 98 -53 14 -23 -11 -19 -78 12 -97 44 -908 448 -922 459 -6
5 -94 53 -196 106 -335 177 -638 345 -1230 682 -466 265 -493 280 -578 309
l-67 24 60 -6 c45 -4 87 -19 169 -61z m-92 -76 c51 -26 192 -106 313 -178 194
-115 296 -174 593 -342 40 -22 71 -46 70 -53 -2 -6 -44 -56 -94 -110 -153
-166 -308 -351 -426 -511 -62 -83 -118 -152 -124 -152 -18 -1 -234 187 -382
333 -218 214 -368 402 -435 544 -29 61 -32 76 -32 162 0 79 4 103 24 143 33
67 105 144 162 173 117 59 201 57 331 -9z m4038 -155 c52 -26 80 -74 80 -137
0 -44 -6 -62 -40 -113 -22 -34 -44 -62 -50 -62 -5 0 -10 -7 -10 -16 0 -19 52
-114 62 -114 8 0 25 60 30 105 3 30 4 30 71 33 l67 3 0 -65 c0 -83 -5 -96 -41
-96 -24 0 -31 -7 -45 -37 -18 -45 -10 -64 32 -78 39 -13 38 -11 24 -45 -12
-29 -54 -60 -82 -60 -7 0 -26 7 -42 15 -27 14 -32 14 -71 -5 -27 -13 -61 -20
-101 -20 -119 0 -184 71 -184 200 0 77 22 131 74 183 l36 36 -14 60 c-23 99 3
174 73 211 45 24 86 25 131 2z m-2742 -279 c48 -25 146 -79 219 -120 72 -40
134 -73 136 -73 3 0 36 -17 74 -38 64 -37 156 -86 458 -244 161 -85 805 -405
899 -447 49 -22 66 -35 59 -42 -7 -7 -43 5 -119 39 -180 82 -586 283 -789 389
-551 290 -735 388 -785 418 -30 18 -101 58 -157 89 -93 51 -123 76 -92 76 5 0
49 -21 97 -47z m-135 -231 c207 -127 1211 -649 1541 -802 84 -39 85 -38 -94
-87 l-131 -35 -142 73 c-213 109 -837 443 -956 512 -179 102 -244 130 -324
135 -56 3 -86 -1 -136 -18 -68 -23 -154 -73 -186 -109 -19 -22 -55 -46 -55
-37 0 10 131 161 247 284 143 151 131 147 236 84z m-1546 -117 c7 -21 -67
-131 -147 -217 -34 -38 -57 -68 -51 -68 5 0 32 12 58 28 69 40 149 65 179 58
19 -5 35 0 61 20 24 18 38 23 45 16 10 -10 -28 -52 -71 -76 -9 -5 -41 -28 -71
-51 -84 -63 -322 -223 -450 -302 -339 -209 -602 -334 -816 -386 -143 -36 -179
-39 -199 -17 -41 46 -23 204 31 276 23 29 31 33 97 39 253 22 428 59 605 125
282 107 534 303 675 528 29 44 44 52 54 27z m6671 -55 c276 -30 523 -101 727
-209 44 -24 91 -54 105 -67 23 -22 23 -24 5 -24 -11 0 -63 11 -115 24 -100 25
-278 52 -287 43 -3 -3 15 -11 38 -17 114 -28 223 -69 340 -127 104 -51 130
-68 135 -89 4 -14 4 -28 1 -31 -4 -3 -48 6 -99 21 -104 29 -223 52 -313 61
-74 7 -57 -2 88 -44 60 -18 166 -60 235 -94 113 -55 127 -65 130 -89 2 -16 -1
-28 -6 -28 -6 0 -52 11 -104 25 -78 20 -278 55 -317 55 -30 0 4 -18 56 -30 66
-14 226 -76 323 -123 47 -23 67 -39 74 -59 5 -15 7 -31 3 -34 -3 -4 -32 0 -64
9 -70 19 -295 57 -332 56 l-26 -1 25 -8 c14 -4 68 -21 120 -38 52 -16 122 -42
155 -57 33 -15 76 -34 95 -43 50 -22 80 -52 80 -79 0 -28 6 -27 -81 -3 -40 11
-135 27 -213 37 -81 10 -148 23 -158 31 -9 7 -76 120 -149 250 -73 130 -137
240 -143 244 -6 4 -43 8 -82 8 l-71 0 -46 -232 c-30 -148 -53 -238 -63 -250
-10 -10 -15 -19 -13 -21 2 -2 33 -1 69 1 l65 5 -35 12 c-35 12 -35 12 -33 70
3 73 13 85 72 84 90 -2 102 -9 138 -74 18 -33 33 -68 33 -77 0 -22 13 -25 181
-38 74 -5 167 -19 206 -30 132 -36 322 -121 355 -157 17 -18 35 -73 24 -73 -3
0 -44 11 -91 25 -123 35 -322 68 -303 50 3 -3 38 -14 77 -26 147 -40 330 -144
349 -198 6 -17 7 -33 3 -36 -5 -2 -35 6 -67 19 -67 27 -254 70 -281 64 -10 -2
9 -13 47 -26 121 -41 323 -173 334 -218 4 -14 5 -29 2 -31 -2 -3 -56 20 -118
50 -205 100 -347 136 -574 144 -576 22 -1594 -170 -2434 -459 -1157 -399
-2091 -618 -2631 -618 -354 0 -790 99 -848 193 -7 10 -10 21 -7 24 2 3 51 -7
108 -21 121 -30 239 -47 311 -45 29 1 41 4 27 6 -120 22 -438 140 -482 180
-10 9 -18 27 -18 41 0 19 4 23 18 17 85 -34 416 -82 437 -64 5 5 -2 9 -17 9
-54 0 -316 88 -420 141 -31 16 -38 25 -38 49 0 17 2 30 4 30 2 0 31 -7 63 -15
48 -12 284 -45 323 -45 6 0 8 5 5 10 -3 6 -15 10 -26 10 -23 0 -188 54 -304
100 -85 33 -105 50 -105 88 0 17 4 22 18 18 68 -19 330 -52 353 -44 8 3 -6 10
-31 17 -81 21 -213 64 -285 93 -73 30 -105 57 -105 90 0 17 5 19 33 14 59 -11
272 -36 302 -35 39 1 29 5 -145 59 -194 61 -236 81 -257 124 -9 20 -14 38 -11
41 3 3 36 -1 74 -9 38 -8 101 -17 139 -21 39 -3 90 -9 115 -12 68 -9 43 5 -57
32 -50 13 -144 45 -211 71 -109 43 -122 51 -141 85 -20 35 -16 59 8 45 12 -8
158 -33 236 -41 33 -3 75 -8 93 -11 20 -3 32 -1 28 4 -3 5 -23 12 -43 15 -63
10 -249 74 -338 116 -62 29 -87 47 -99 69 -19 37 -14 42 32 31 147 -35 374
-79 458 -90 99 -12 497 -7 649 7 l60 6 60 -82 60 -82 5 104 5 103 74 18 c41
10 79 16 86 13 6 -2 22 -36 36 -76 l24 -72 7 44 c3 23 7 61 7 83 l1 40 108 24
c104 23 324 79 487 122 217 58 862 251 1115 334 1081 354 1465 454 1971 510
l56 6 68 -113 c38 -62 80 -131 95 -153 15 -22 31 -51 35 -64 15 -48 21 -2 14
109 -4 63 -8 141 -8 173 l-1 57 125 0 c69 0 169 -5 223 -10z m-6390 -252 c4
-19 -49 -57 -224 -165 -381 -236 -782 -438 -1033 -522 -114 -38 -142 -36 -40
3 335 129 679 315 1108 597 91 60 170 108 176 106 5 -2 11 -11 13 -19z m1657
-148 c171 -94 416 -225 592 -316 73 -38 133 -75 133 -81 0 -7 -5 -13 -11 -13
-11 0 -291 143 -314 160 -5 4 -73 42 -150 85 -167 92 -475 275 -475 281 0 6
61 -25 225 -116z m-1045 -185 c-24 -44 -42 -55 -56 -34 -7 11 66 93 75 83 3
-2 -6 -25 -19 -49z m6009 -75 c22 -41 41 -78 41 -82 0 -5 -29 -8 -65 -8 -62 0
-65 1 -65 25 0 23 17 116 26 144 6 20 16 8 63 -79z m-5935 48 c-23 -47 -44
-67 -60 -61 -22 8 -17 24 18 60 43 44 64 45 42 1z m50 -63 c-29 -45 -47 -55
-60 -33 -8 12 73 94 83 84 3 -3 -8 -26 -23 -51z m83 1 c-3 -8 -18 -33 -32 -56
-25 -40 -27 -41 -45 -25 -19 17 -18 19 28 56 53 43 56 45 49 25z m63 -33 c0
-5 -11 -26 -25 -48 -41 -67 -27 -75 35 -19 46 41 49 37 18 -23 -12 -23 -19
-45 -15 -49 3 -4 25 10 49 31 47 43 59 35 28 -19 -37 -67 -20 -76 35 -19 43
44 56 37 27 -16 -39 -68 -25 -80 33 -30 20 18 38 29 41 26 3 -3 -4 -23 -15
-46 -12 -22 -21 -43 -21 -46 0 -14 24 -2 60 31 22 20 43 34 46 31 4 -3 -7 -25
-23 -49 -23 -33 -35 -42 -54 -40 -13 1 -25 7 -27 12 -2 6 -9 10 -16 10 -7 0
-21 9 -31 20 -10 11 -23 20 -30 20 -6 0 -20 8 -31 18 -30 26 -82 62 -91 62 -4
1 -26 16 -48 35 l-40 34 40 41 c37 38 55 49 55 33z m360 -238 c0 -17 -35 -55
-50 -55 -18 0 -11 19 17 45 33 29 33 30 33 10z m70 -25 c0 -5 -5 -10 -11 -10
-5 0 -7 5 -4 10 3 6 8 10 11 10 2 0 4 -4 4 -10z m4722 -664 c288 -94 911 -285
1543 -472 564 -167 574 -171 700 -219 195 -75 386 -179 494 -269 63 -53 41
-44 -62 25 -114 76 -337 186 -477 234 -58 20 -357 111 -665 202 -594 175 -755
223 -1170 352 -427 132 -499 157 -503 169 -6 20 32 14 140 -22z m-246 -60 c76
-25 173 -56 214 -69 313 -102 1365 -421 1790 -543 282 -81 514 -166 701 -258
97 -47 234 -128 257 -151 12 -12 -33 8 -71 32 -77 48 -279 143 -409 191 -142
53 -323 110 -693 217 -126 37 -279 82 -340 100 -60 18 -182 54 -270 80 -617
182 -1326 412 -1333 433 -5 18 1 16 154 -32z m-164 -70 c90 -30 222 -73 293
-96 72 -23 186 -60 255 -82 69 -22 222 -69 340 -104 118 -36 280 -86 360 -110
211 -66 783 -234 796 -234 32 0 33 -26 8 -170 -26 -157 -94 -440 -105 -440 -4
0 -9 37 -11 83 -7 159 -81 243 -280 317 -29 10 -186 60 -348 110 -420 130
-1068 347 -1470 493 -426 156 -443 162 -447 174 -2 6 67 28 154 51 87 22 174
45 193 51 64 17 97 12 262 -43z m-754 -129 c31 -13 155 -61 275 -107 347 -132
251 -111 -152 35 -206 74 -204 73 -196 86 8 12 8 12 73 -14z m-1118 -361 c0
-2 -7 -20 -15 -39 -8 -20 -15 -41 -15 -47 0 -20 27 -9 48 20 27 36 47 40 37 8
-3 -13 -9 -33 -12 -45 -8 -35 18 -28 46 12 13 19 27 35 32 35 12 0 11 -5 -6
-46 -8 -20 -12 -40 -9 -45 6 -11 34 -12 34 -1 1 4 12 21 26 37 l26 30 -6 -30
c-3 -16 -8 -40 -12 -52 -10 -34 20 -29 46 7 23 33 46 41 35 13 -17 -45 -18
-73 -1 -73 9 0 16 3 16 8 1 4 12 21 26 37 l26 30 -7 -38 c-3 -21 -9 -45 -12
-53 -10 -27 25 -14 56 21 39 45 45 44 26 -2 -27 -65 -1 -86 35 -28 22 36 48
49 35 18 -4 -10 -9 -33 -12 -50 -8 -46 15 -43 46 5 27 41 39 30 22 -20 -18
-51 2 -58 45 -17 35 32 36 33 30 9 -18 -62 -18 -70 -3 -70 8 0 25 16 37 35 34
55 50 47 29 -14 -19 -55 4 -61 38 -10 31 47 44 34 24 -23 -18 -50 7 -55 47
-10 30 34 33 35 28 12 -2 -14 -8 -35 -11 -47 -11 -34 20 -30 47 7 26 35 43 39
34 8 -18 -66 -18 -68 -3 -68 8 0 25 16 37 35 12 19 26 35 31 35 12 0 12 0 -6
-49 -13 -38 -13 -42 2 -48 10 -4 21 0 27 11 37 61 54 61 38 2 -15 -52 4 -56
44 -10 34 40 44 32 25 -19 -12 -32 4 -61 20 -34 5 9 21 29 35 45 l26 27 -6
-25 c-18 -75 -19 -80 -3 -80 8 0 25 16 37 35 28 45 43 36 25 -15 -19 -53 0
-64 35 -22 15 18 30 32 34 32 4 0 4 -20 0 -45 -8 -56 8 -60 37 -10 36 60 47
44 24 -32 -12 -39 27 -29 49 12 21 39 42 47 32 13 -18 -63 -19 -78 -3 -78 8 0
25 16 37 35 12 19 24 35 27 35 3 0 2 -22 -2 -50 -8 -61 10 -69 39 -15 26 49
40 44 32 -10 -9 -59 11 -61 43 -5 35 62 39 50 15 -44 -9 -39 21 -34 48 9 29
44 42 45 32 3 -11 -50 -10 -60 3 -65 6 -2 19 9 27 25 8 15 22 35 32 43 16 13
17 12 11 -16 -4 -16 -9 -40 -13 -52 -11 -39 23 -27 49 18 29 49 43 37 22 -20
-19 -56 0 -65 39 -18 36 43 49 47 36 11 -14 -36 -13 -77 3 -72 6 3 21 21 32
41 29 53 47 49 30 -8 -10 -31 -11 -46 -3 -51 11 -7 43 28 54 59 6 20 24 23 24
3 0 -7 -5 -28 -11 -45 -9 -25 -9 -35 1 -44 9 -9 15 -8 24 6 6 10 22 33 35 50
26 35 25 37 6 -50 -11 -49 19 -44 45 7 11 22 25 40 30 40 13 0 13 -4 -2 -52
-8 -29 -8 -42 0 -50 8 -8 16 -3 29 21 39 70 45 71 39 9 -8 -73 9 -77 44 -13
30 55 44 46 25 -17 -12 -40 -12 -47 1 -52 9 -3 21 8 34 34 36 70 56 68 35 -5
-8 -26 -13 -50 -10 -53 10 -11 35 9 50 43 26 52 39 56 32 7 -4 -22 -9 -47 -13
-55 -3 -8 2 -17 10 -20 12 -5 23 8 43 46 23 44 28 48 31 29 2 -13 -1 -37 -7
-54 -14 -41 -14 -48 4 -48 8 0 28 26 45 58 l31 57 -5 -40 c-3 -22 -8 -52 -12
-67 -11 -49 23 -34 51 22 14 28 29 50 34 50 5 0 3 -25 -5 -55 -23 -88 -2 -99
36 -20 25 52 46 60 36 15 -3 -16 -9 -43 -12 -60 -11 -50 19 -37 46 20 36 76
55 60 26 -22 -7 -21 -11 -40 -8 -43 14 -14 29 0 57 52 31 60 43 58 26 -4 -14
-48 -14 -83 -1 -83 5 0 21 22 35 49 28 56 51 78 42 40 -18 -72 -19 -109 -5
-109 9 0 23 19 32 44 18 47 46 80 46 55 0 -8 -7 -38 -14 -66 -13 -48 -13 -53
2 -53 11 0 26 21 41 55 13 30 27 55 32 55 12 0 11 -8 -6 -68 -15 -51 -14 -72
5 -72 6 0 24 28 41 63 36 70 48 64 25 -14 -9 -28 -13 -55 -10 -60 12 -20 25
-6 50 49 29 63 40 57 29 -16 -9 -58 -9 -56 4 -60 6 -2 23 23 38 55 19 42 28
53 31 39 6 -26 -18 -126 -30 -126 -15 0 -185 49 -353 101 -1115 350 -1937 670
-2997 1168 -49 23 -88 45 -88 50 0 14 35 23 62 16 16 -4 29 -1 37 9 19 22 45
21 36 -1 -19 -50 5 -55 40 -9 23 31 45 46 45 32z m4269 -242 c416 -140 664
-263 842 -421 89 -79 142 -146 181 -229 31 -64 33 -76 33 -174 0 -100 -2 -109
-34 -175 -42 -86 -149 -196 -236 -242 -74 -39 -189 -78 -292 -99 -106 -22
-393 -29 -548 -15 -213 20 -605 93 -605 113 0 5 18 44 40 88 132 262 275 711
339 1060 33 180 26 163 73 156 22 -4 116 -32 207 -62z m-956 -1074 c-9 -36
-17 -67 -19 -69 -2 -2 -15 0 -30 3 -24 6 -25 9 -11 24 8 9 25 41 37 70 30 70
43 54 23 -28z m69 -17 c-16 -71 -24 -81 -50 -65 -9 6 -6 21 14 63 26 53 44 82
49 77 2 -2 -4 -36 -13 -75z m81 15 c-17 -84 -27 -108 -43 -108 -30 0 -30 11 1
71 30 60 51 78 42 37z m52 -78 c-9 -28 -21 -50 -26 -50 -21 0 -18 29 8 86 22
46 28 54 31 36 2 -12 -4 -45 -13 -72z m-3421 -136 c30 -11 16 -21 -44 -33 -33
-7 -75 -19 -93 -27 -31 -14 -29 -14 43 -9 77 6 131 -3 137 -22 2 -5 -16 -13
-39 -16 -24 -3 -64 -15 -88 -26 l-44 -20 97 6 c70 4 101 2 112 -7 25 -21 18
-27 -42 -34 -32 -4 -71 -14 -88 -22 l-30 -14 45 4 c69 7 130 -4 130 -23 0 -12
-22 -22 -89 -37 -105 -26 -192 -62 -284 -121 -37 -24 -70 -43 -73 -43 -6 0
-124 241 -124 253 0 4 86 50 192 102 189 93 234 107 282 89z m-483 -419 c44
-90 88 -169 98 -174 28 -16 58 -2 85 39 34 51 76 82 177 129 118 55 129 57
136 32 5 -20 6 -20 38 4 31 24 55 32 55 19 0 -4 -15 -25 -33 -48 -72 -88 -46
-84 41 8 44 46 52 51 52 33 0 -24 -44 -82 -102 -135 -157 -142 -362 -240 -553
-264 -80 -10 -104 -9 -169 5 -73 15 -166 59 -166 78 0 11 22 12 52 0 13 -4 52
-11 88 -15 l65 -6 -81 33 c-128 52 -221 140 -109 103 22 -7 72 -16 110 -19
l70 -6 -66 22 c-88 31 -134 59 -134 83 0 11 6 19 15 18 8 0 44 -4 80 -7 l65
-6 -62 21 c-35 11 -63 24 -63 28 0 20 198 190 221 190 6 0 46 -74 90 -165z"/>
<path d="M10180 10611 c-36 -16 -105 -47 -153 -70 -49 -22 -91 -41 -93 -41 -3
0 -213 -98 -459 -214 -60 -29 -129 -61 -152 -71 -24 -10 -41 -20 -39 -22 4 -4
52 15 366 145 103 42 189 67 199 57 3 -4 -10 -20 -29 -36 -30 -25 -20 -22 80
25 265 124 430 207 430 216 0 14 -42 40 -65 39 -11 0 -49 -13 -85 -28z"/>
<path d="M10356 10007 c3 -10 9 -15 12 -12 3 3 0 11 -7 18 -10 9 -11 8 -5 -6z"/>
<path d="M10485 9477 c-66 -35 -214 -112 -330 -172 -115 -60 -250 -130 -300
-157 -49 -26 -162 -85 -250 -129 -88 -45 -164 -85 -170 -91 -13 -12 40 11 277
120 37 17 79 34 93 38 47 12 27 -21 -40 -65 -86 -58 -94 -72 -14 -29 35 20
145 77 244 128 99 51 207 108 240 125 33 18 110 59 170 92 61 32 125 65 143
72 18 8 30 16 27 19 -3 3 -63 -21 -135 -53 -128 -57 -172 -65 -116 -20 16 12
86 57 157 100 110 66 141 86 127 85 -2 0 -57 -29 -123 -63z"/>
<path d="M4375 8533 c-32 -5 -222 -40 -268 -50 -15 -3 -29 -9 -32 -13 -2 -4 7
-5 20 -2 32 6 32 10 -5 -235 -39 -253 -35 -240 -66 -247 -15 -4 -24 -9 -21
-12 3 -4 21 -1 39 5 47 15 181 38 332 55 145 17 199 38 234 89 50 75 17 149
-74 162 -27 4 -53 10 -58 13 -12 7 15 22 42 22 33 0 99 36 118 65 25 38 21 93
-10 124 -25 24 -33 26 -124 27 -53 1 -110 0 -127 -3z m45 -29 c17 -19 0 -142
-24 -179 -16 -24 -59 -35 -69 -17 -4 6 15 134 28 190 6 26 46 30 65 6z m-22
-272 c4 -54 -23 -163 -45 -179 -9 -7 -27 -13 -40 -13 -27 0 -29 20 -13 116 6
32 13 74 16 92 5 31 7 33 42 30 36 -3 37 -4 40 -46z"/>
<path d="M4930 8523 c-6 -10 -62 -112 -124 -228 -78 -144 -122 -215 -140 -225
-14 -8 -26 -18 -26 -22 0 -5 30 -8 68 -8 l67 0 -28 23 -27 22 29 61 29 62 69
-5 c37 -2 73 -6 79 -8 6 -2 16 -29 22 -61 18 -86 16 -94 -15 -94 -58 0 -1 -17
127 -38 110 -18 284 -59 500 -117 22 -6 23 -5 8 7 -9 7 -23 18 -32 23 -15 9
-15 20 2 122 10 62 21 115 24 118 3 3 17 0 32 -6 26 -12 26 -13 26 -125 0
-108 1 -114 27 -145 15 -17 45 -40 68 -50 46 -21 126 -25 158 -7 21 12 21 13
-13 18 -28 4 -34 9 -33 25 15 117 -2 175 -61 216 -45 30 -45 39 -1 32 95 -15
148 75 93 157 -13 19 -45 46 -71 62 -49 28 -209 80 -367 118 -98 23 -103 24
-95 10 3 -5 15 -10 26 -10 14 0 19 -7 19 -27 0 -44 -61 -437 -70 -446 -10 -11
-78 2 -94 18 -6 7 -19 48 -28 91 -9 44 -33 159 -54 256 l-37 177 -56 6 c-31 4
-64 9 -73 11 -10 3 -22 -3 -28 -13z m-15 -221 c9 -46 15 -85 13 -86 -10 -6
-128 7 -128 15 0 22 82 171 90 163 4 -5 16 -47 25 -92z m727 61 c21 -19 23
-85 4 -148 -11 -37 -15 -40 -46 -40 -33 0 -35 2 -34 30 1 17 7 63 14 103 13
77 25 88 62 55z"/>
<path d="M5960 8271 c0 -5 10 -11 23 -13 20 -3 22 -8 19 -48 -2 -43 -46 -343
-58 -403 -5 -24 -10 -28 -30 -24 -30 5 -32 -9 -1 -18 24 -7 49 -16 257 -94
148 -55 211 -68 252 -52 30 11 58 57 58 96 0 39 -35 97 -72 121 -18 11 -46 29
-61 38 -38 23 -29 30 23 16 49 -13 104 1 120 30 18 34 11 93 -15 132 -25 38
-110 86 -215 122 -25 8 -99 36 -165 61 -129 48 -135 50 -135 36z m315 -131
c15 -17 17 -30 11 -87 -9 -89 -24 -119 -56 -115 -14 2 -29 7 -33 11 -4 4 0 53
9 109 18 109 31 124 69 82z m-43 -226 l31 -16 -6 -81 c-6 -104 -20 -137 -59
-137 -17 0 -31 6 -35 16 -6 15 15 211 24 227 6 10 10 9 45 -9z"/>
<path d="M6560 8052 c0 -5 9 -12 20 -15 26 -7 26 -26 -5 -228 -41 -273 -36
-255 -70 -251 -47 6 -29 -3 115 -56 247 -91 331 -116 340 -102 12 19 33 171
25 178 -4 4 -13 -2 -20 -13 -66 -97 -101 -122 -159 -111 -54 10 -57 20 -40
136 9 58 19 108 23 113 4 4 20 -6 35 -22 20 -21 30 -43 33 -75 6 -52 18 -60
27 -18 7 33 26 162 26 180 0 22 -19 12 -35 -18 -13 -25 -22 -30 -52 -30 l-36
0 7 53 c14 110 28 167 42 167 8 0 32 -11 54 -25 43 -27 72 -75 91 -149 6 -25
15 -46 19 -46 9 0 31 161 24 172 -3 4 -46 21 -97 37 -76 24 -280 97 -349 126
-10 4 -18 3 -18 -3z"/>
<path d="M7084 7865 c10 -8 24 -16 29 -18 7 -2 1 -65 -17 -183 -16 -98 -31
-202 -33 -231 -5 -50 -7 -52 -37 -55 -26 -3 -17 -8 54 -30 47 -15 114 -34 150
-43 71 -16 127 -19 73 -4 -18 5 -33 16 -33 24 0 39 32 221 40 229 5 5 19 2 35
-8 25 -16 26 -19 23 -116 -3 -111 7 -136 73 -175 44 -26 134 -27 173 -2 30 20
27 43 -4 27 -10 -5 -21 -10 -24 -10 -4 0 -5 33 -5 73 2 91 -9 119 -63 154
l-43 28 45 5 c80 10 110 39 110 103 0 42 -29 81 -80 107 -21 11 -107 37 -191
59 -85 23 -183 50 -219 61 -77 23 -81 24 -56 5z m311 -105 c14 -16 16 -29 11
-66 -12 -92 -25 -124 -49 -124 -47 0 -51 11 -38 101 7 46 14 90 16 97 6 19 40
14 60 -8z"/>
<path d="M7730 7711 c8 -6 23 -11 33 -11 15 0 17 -6 13 -27 -3 -16 -17 -109
-31 -208 -35 -244 -34 -241 -70 -238 -27 3 -28 2 -8 -7 21 -8 221 -30 286 -30
32 0 36 17 5 22 -19 2 -22 8 -20 33 2 26 43 312 58 403 4 28 9 32 34 32 17 0
30 4 30 8 0 5 -46 12 -102 15 -57 4 -134 9 -173 13 -51 4 -66 3 -55 -5z"/>
<path d="M8362 7711 l-43 -6 -120 -230 c-67 -127 -134 -242 -150 -257 l-29
-28 65 0 c37 0 65 4 65 10 0 6 -9 10 -20 10 -31 0 -34 23 -10 76 33 75 40 80
125 82 l74 2 10 -37 c5 -21 11 -53 13 -72 3 -30 -1 -36 -22 -43 -15 -4 -1 -5
35 -2 83 7 275 46 275 56 0 4 -9 8 -19 8 -11 0 -22 8 -25 18 -2 9 -28 108 -57
220 l-53 202 -35 -2 c-20 0 -55 -4 -79 -7z m-82 -172 c0 -11 4 -28 9 -37 5 -9
12 -40 16 -68 l6 -51 -65 -2 c-41 -1 -66 2 -66 9 0 19 80 170 90 170 6 0 10
-9 10 -21z"/>
<path d="M2058 6667 c-47 -75 -60 -174 -33 -263 32 -110 198 -340 363 -503 38
-38 46 -42 54 -28 19 36 83 11 182 -70 63 -51 126 -133 126 -164 0 -14 -7 -19
-27 -19 -27 -1 -27 -2 22 -45 27 -25 53 -45 57 -45 3 0 35 39 70 88 35 48 102
137 150 199 49 62 88 116 87 120 0 4 -66 47 -147 95 l-147 87 -22 -21 c-13
-12 -23 -25 -23 -30 0 -4 52 -49 115 -99 63 -51 115 -94 115 -96 0 -10 -29 5
-144 76 l-129 80 -71 -1 c-46 -1 -82 5 -101 15 -61 31 -115 110 -115 167 0 26
-18 48 -120 147 -141 137 -195 210 -212 294 -6 32 -14 59 -18 59 -3 0 -17 -19
-32 -43z m356 -715 c8 -13 -11 -35 -23 -28 -16 10 -14 36 3 36 8 0 17 -4 20
-8z"/>
<path d="M2735 6573 c6 -6 60 -44 120 -85 61 -42 180 -128 265 -191 196 -146
194 -145 220 -122 11 10 20 25 20 34 -1 10 -109 78 -307 191 -304 174 -338
192 -318 173z"/>
<path d="M2291 6522 c2 -6 44 -52 92 -102 77 -79 107 -99 107 -71 0 4 -46 48
-101 96 -56 49 -100 84 -98 77z"/>
<path d="M2575 6375 c-76 -28 -117 -112 -96 -195 21 -78 77 -120 158 -120 100
0 163 61 163 158 0 126 -107 201 -225 157z m138 -65 c85 -74 33 -207 -81 -204
-45 1 -74 20 -98 66 -59 113 83 222 179 138z"/>
<path d="M2603 6300 c-37 -15 -55 -77 -37 -124 12 -31 29 -16 30 25 0 51 24
72 77 67 45 -4 48 6 7 27 -33 17 -45 18 -77 5z"/>
<path d="M6435 6563 c-13 -12 -16 -28 -12 -60 2 -24 8 -47 11 -51 10 -9 54 42
62 72 11 47 -28 72 -61 39z"/>
<path d="M6372 6247 c-17 -21 -42 -84 -42 -107 0 -51 79 -87 130 -60 18 10 17
15 -22 88 -50 94 -52 96 -66 79z"/>
<path d="M1070 5325 c-30 -8 -113 -21 -185 -30 -71 -9 -138 -18 -148 -21 -10
-3 -27 -26 -38 -51 -25 -59 -24 -71 4 -46 42 39 123 71 272 108 139 34 205 56
165 54 -8 -1 -40 -7 -70 -14z"/>
<path d="M8515 5524 c-66 -7 -130 -13 -142 -13 -13 -1 -23 -6 -23 -11 0 -6 10
-8 24 -4 13 3 27 1 30 -4 7 -11 70 -339 81 -419 6 -49 5 -53 -14 -53 -12 0
-21 -5 -21 -11 0 -7 12 -9 33 -5 17 3 88 11 157 16 115 10 168 20 108 20 -18
0 -27 6 -31 23 -6 24 -87 446 -87 453 0 2 11 4 25 4 14 0 25 5 25 10 0 12 -8
12 -165 -6z"/>
<path d="M7975 5438 c-44 -10 -125 -30 -179 -44 -108 -26 -126 -34 -79 -34
l30 0 22 -117 c43 -225 62 -344 56 -353 -4 -6 -16 -10 -28 -11 -12 0 -16 -3
-9 -6 14 -5 272 52 307 68 17 8 15 9 -7 4 -15 -3 -29 -1 -32 4 -7 11 -46 210
-46 234 0 12 8 17 31 17 34 0 46 -21 69 -120 23 -96 92 -137 189 -111 52 14
111 55 111 77 0 19 -17 18 -29 -3 -14 -25 -30 -6 -42 48 -20 85 -55 121 -132
134 l-39 6 50 25 c86 43 99 116 32 177 -28 25 -36 27 -113 26 -45 0 -118 -10
-162 -21z m74 -56 c7 -21 14 -62 14 -92 2 -49 -1 -55 -25 -69 -15 -9 -29 -13
-33 -10 -8 9 -43 198 -37 204 3 3 20 5 37 5 28 0 33 -5 44 -38z"/>
<path d="M7575 5336 c-22 -7 -87 -28 -145 -46 -235 -73 -279 -90 -227 -90 15
0 27 -2 27 -4 0 -3 18 -100 40 -217 22 -117 40 -221 40 -231 0 -10 -10 -20
-25 -24 -14 -3 -25 -11 -25 -16 0 -6 8 -7 18 -3 46 18 331 107 406 127 27 7
51 19 54 26 3 8 -1 52 -8 98 -15 92 -31 105 -42 33 -13 -91 -62 -162 -118
-174 -17 -4 -34 -4 -37 -1 -6 6 -42 180 -42 209 -2 41 68 10 107 -49 11 -16
12 -10 7 41 -7 80 -26 165 -37 165 -4 0 -8 -13 -8 -30 0 -32 -57 -107 -71 -93
-6 6 -49 198 -49 219 0 2 16 7 35 13 55 15 98 -2 149 -61 25 -29 48 -49 52
-46 3 4 -2 43 -11 87 -20 89 -21 90 -90 67z"/>
<path d="M7078 5176 c-72 -27 -81 -36 -35 -36 25 0 37 -5 41 -17 17 -60 56
-292 56 -338 0 -48 -4 -60 -32 -90 -22 -23 -45 -38 -68 -41 -63 -10 -69 2
-111 217 -21 107 -38 200 -39 207 0 7 14 18 30 23 17 6 30 15 30 20 0 7 -89
-22 -287 -95 -45 -17 -54 -28 -18 -24 l29 3 37 -180 c40 -199 50 -228 86 -244
76 -35 255 19 327 100 50 54 52 89 16 272 -38 200 -38 202 3 227 43 27 11 25
-65 -4z"/>
<path d="M6360 4918 c-157 -28 -280 -169 -280 -321 0 -120 51 -192 157 -223
47 -14 64 -14 112 -4 116 25 111 26 111 -8 0 -47 34 -82 80 -82 31 0 44 7 73
39 30 34 67 118 67 154 0 5 -18 -9 -40 -32 -43 -44 -80 -53 -115 -27 -18 13
-17 16 23 61 52 59 79 115 88 182 22 171 -106 292 -276 261z m5 -60 c8 -18 25
-94 39 -168 36 -195 36 -183 1 -191 -16 -4 -39 -10 -51 -14 -19 -6 -22 2 -48
142 -33 180 -35 231 -10 250 30 22 53 15 69 -19z m75 -407 c0 -31 -12 -44 -49
-56 -27 -8 -41 7 -41 46 0 34 6 39 52 39 35 0 38 -2 38 -29z"/>
<path d="M5945 4769 c-11 -5 -33 -14 -50 -21 l-30 -11 35 -6 35 -6 28 -135
c15 -74 28 -168 29 -209 2 -73 2 -74 -32 -102 -44 -37 -94 -47 -120 -24 -22
20 -22 20 -60 220 -16 86 -33 167 -36 181 -5 21 -2 26 25 35 17 6 31 15 31 21
0 6 -8 7 -17 3 -10 -4 -54 -18 -98 -32 -184 -57 -222 -71 -187 -72 17 -1 32
-2 32 -4 0 -17 63 -340 71 -364 17 -51 52 -73 119 -73 115 0 244 60 281 130
25 45 24 74 -5 227 -42 219 -42 214 -15 234 22 17 23 19 4 18 -11 0 -29 -4
-40 -10z"/>
<path d="M5093 4526 c-79 -17 -143 -35 -143 -39 0 -5 9 -6 19 -2 11 3 22 1 26
-5 8 -13 85 -417 85 -446 0 -14 -8 -24 -22 -27 -12 -4 -20 -9 -16 -12 10 -10
459 93 476 109 5 6 -12 137 -24 179 -9 28 -21 11 -28 -39 -13 -99 -65 -166
-135 -176 -25 -3 -25 -1 -67 212 -52 260 -52 260 -20 260 14 0 28 5 31 10 9
15 -25 10 -182 -24z"/>
<path d="M4813 4474 c-109 -19 -255 -34 -333 -34 -40 0 -70 -4 -70 -10 0 -5
11 -10 24 -10 30 0 28 7 70 -225 47 -257 46 -247 16 -257 -14 -4 25 -5 85 -3
128 6 373 39 386 52 9 9 -18 171 -31 186 -5 5 -13 -14 -19 -42 -22 -104 -64
-156 -131 -163 l-34 -3 -21 107 c-12 59 -18 113 -14 120 12 20 75 -17 89 -53
15 -35 30 -38 30 -5 0 34 -30 179 -40 189 -4 5 -12 -12 -18 -36 -13 -49 -32
-70 -59 -65 -13 2 -21 24 -34 88 -26 125 -25 126 17 133 21 4 50 1 68 -7 30
-13 93 -74 114 -112 21 -37 25 -2 9 73 -9 42 -20 80 -24 83 -5 3 -40 1 -80 -6z"/>
<path d="M3770 4452 c0 -6 12 -12 26 -14 15 -2 30 -10 35 -18 6 -13 80 -401
83 -439 0 -8 -10 -18 -24 -21 -22 -6 -21 -7 15 -13 22 -3 76 -9 120 -12 44 -3
106 -8 138 -11 38 -4 57 -2 57 5 0 6 -15 11 -34 11 -39 0 -38 -1 -56 105 -6
39 -13 81 -16 95 -42 214 -51 266 -44 274 15 15 68 -14 79 -42 18 -48 33 -136
29 -177 -2 -32 -7 -40 -28 -45 l-25 -6 24 -8 c38 -13 164 3 200 25 70 42 75
133 12 199 -48 51 -85 60 -286 70 -175 9 -268 18 -292 27 -7 3 -13 0 -13 -5z"/>
<path d="M10204 3424 c-3 -19 -5 -37 -3 -38 2 -2 132 -41 288 -86 246 -70 415
-129 564 -194 20 -9 37 -14 37 -12 0 17 -300 165 -440 216 -110 41 -320 114
-387 133 l-52 16 -7 -35z"/>
<path d="M10535 2887 c-112 -64 -120 -239 -14 -313 95 -66 237 -27 280 76 19
45 13 126 -13 173 -45 82 -167 113 -253 64z m165 -42 c39 -20 60 -63 60 -123
0 -134 -171 -181 -246 -67 -36 56 -12 159 44 189 35 20 105 20 142 1z"/>
<path d="M10562 2797 c-30 -32 -31 -108 -1 -138 26 -26 32 -21 18 19 -20 58
37 121 98 109 14 -3 23 1 23 8 0 17 -23 25 -74 25 -32 0 -48 -6 -64 -23z"/>
<path d="M10031 2813 c-6 -16 -26 -71 -44 -123 -42 -116 -121 -308 -153 -372
-13 -26 -24 -50 -24 -53 0 -12 58 -26 219 -54 292 -52 484 -66 681 -52 329 24
567 140 654 316 15 31 26 58 24 60 -2 2 -37 -8 -78 -22 -97 -33 -256 -41 -441
-23 -74 8 -170 14 -214 14 -66 1 -90 6 -136 28 -31 16 -110 42 -175 58 -65 17
-132 35 -149 40 -16 5 -54 17 -83 26 -91 28 -51 26 89 -5 74 -15 156 -32 182
-35 l48 -7 -7 28 c-20 81 -30 97 -70 109 -172 55 -299 94 -305 94 -4 0 -11
-12 -18 -27z m215 -452 c100 -45 122 -92 53 -113 -35 -10 -55 -9 -122 5 -129
26 -209 88 -161 125 28 21 167 10 230 -17z m275 -90 c20 -16 22 -21 10 -35
-17 -20 -50 -17 -64 6 -8 12 -7 21 2 32 17 20 24 20 52 -3z"/>
<path d="M11280 2643 c-49 -11 -111 -13 -253 -10 l-187 3 -20 -33 -19 -33 37
-2 c84 -3 242 5 312 17 66 12 210 60 210 71 0 5 -3 5 -80 -13z"/>
<path d="M2816 10695 c-33 -24 -63 -50 -67 -58 -5 -8 5 -29 24 -54 47 -60 60
-66 92 -41 36 28 46 15 52 -66 3 -37 9 -69 14 -72 4 -2 22 8 40 24 l31 28 -11
89 c-10 70 -18 98 -39 125 -33 43 -60 70 -69 70 -5 0 -35 -20 -67 -45z"/>
<path d="M2425 10368 c-168 -154 -295 -282 -295 -298 0 -20 73 -90 93 -90 8 0
22 9 32 20 10 11 26 20 35 20 15 0 330 -304 330 -319 0 -4 -9 -17 -20 -29 -11
-12 -20 -27 -20 -34 0 -18 85 -101 98 -97 5 2 83 75 172 162 l163 158 13 72
c7 40 13 80 13 89 1 13 -237 312 -268 338 -3 3 -19 22 -34 43 l-28 37 -103 0
-102 0 -79 -72z m183 -105 c67 -68 272 -304 272 -314 0 -17 -107 -109 -126
-109 -13 0 -35 16 -54 38 -18 20 -84 89 -146 154 -63 64 -114 123 -114 131 0
15 116 127 132 127 4 0 21 -12 36 -27z"/>
<path d="M6970 9869 c25 -12 90 -40 145 -64 55 -23 159 -68 230 -100 155 -68
190 -78 206 -59 6 8 17 14 25 14 7 0 15 4 19 9 5 9 -57 31 -461 160 -204 65
-236 73 -164 40z"/>
<path d="M6874 9792 c3 -4 110 -61 239 -127 l235 -120 38 18 c20 10 33 22 28
26 -5 5 -112 48 -239 96 -282 107 -307 116 -301 107z"/>
<path d="M1750 9663 c-90 -110 -170 -217 -170 -230 0 -13 55 -61 88 -76 21
-10 27 -8 46 16 37 46 24 53 336 -187 36 -27 67 -51 69 -53 3 -2 -5 -17 -17
-33 -12 -16 -22 -33 -22 -39 0 -15 100 -90 113 -85 7 2 30 29 51 59 22 30 47
63 55 72 9 10 36 43 61 73 25 30 47 57 50 60 3 3 18 21 34 40 16 19 50 59 77
88 27 29 49 59 49 66 0 18 -136 146 -154 146 -20 0 -106 -100 -106 -123 0 -10
7 -20 15 -23 15 -6 21 -50 7 -56 -4 -1 -25 -24 -46 -50 -21 -27 -45 -48 -53
-48 -12 0 -225 165 -288 224 -11 10 -30 25 -42 33 -28 19 -29 44 -3 68 11 10
20 25 19 34 0 18 -83 91 -102 91 -7 0 -37 -30 -67 -67z"/>
<path d="M6771 9696 c26 -23 413 -216 433 -216 27 0 79 31 69 41 -9 9 -16 12
-307 113 -178 62 -205 71 -195 62z"/>
<path d="M6726 9571 c5 -5 82 -45 170 -90 l161 -81 33 16 c17 9 28 20 23 25
-9 9 -369 139 -386 139 -7 0 -7 -3 -1 -9z"/>
<path d="M6770 9401 c126 -66 137 -70 168 -60 19 6 30 15 25 19 -10 10 -269
101 -303 107 -14 2 36 -28 110 -66z"/>
<path d="M6654 9314 c81 -41 115 -54 134 -49 14 3 21 10 16 14 -9 9 -240 91
-252 90 -4 0 42 -25 102 -55z"/>
<path d="M6495 9251 c8 -14 114 -61 137 -61 15 0 19 3 12 10 -13 13 -156 62
-149 51z"/>
<path d="M6440 9131 c39 -23 50 -25 50 -12 0 5 -11 12 -24 15 -13 3 -32 8 -43
12 -10 3 -2 -4 17 -15z"/>
<path d="M1286 9017 c-13 -18 -33 -49 -45 -69 -53 -96 -65 -115 -82 -140 -11
-15 -26 -42 -34 -61 l-14 -35 39 -25 c64 -43 84 -44 111 -5 12 18 24 35 25 37
2 2 67 -34 146 -79 79 -46 159 -91 178 -102 19 -10 45 -27 57 -36 21 -16 22
-19 8 -46 -23 -43 -20 -49 40 -83 57 -33 79 -34 89 -5 3 9 19 40 36 67 17 28
33 57 37 65 4 8 56 89 115 178 60 90 108 171 106 180 -3 17 -144 121 -165 122
-13 0 -58 -52 -86 -99 -18 -31 -18 -31 9 -56 24 -22 26 -28 16 -50 -7 -14 -17
-31 -23 -38 -5 -7 -19 -27 -29 -44 -12 -20 -28 -33 -40 -33 -19 0 -161 81
-280 160 -30 20 -63 39 -73 43 -27 10 -32 35 -13 74 19 40 17 46 -32 77 -62
38 -69 38 -96 3z"/>
<path d="M10005 8824 c-76 -41 -144 -79 -149 -84 -7 -7 2 -26 24 -57 100 -140
240 -361 319 -506 477 -869 638 -1917 445 -2883 -81 -404 -192 -729 -379
-1107 -48 -98 -86 -179 -84 -181 6 -6 309 -96 323 -96 11 0 80 132 164 315 86
188 184 462 227 632 13 51 26 97 29 101 19 31 91 416 118 632 18 147 22 229
22 510 1 420 -21 642 -98 1005 -53 243 -170 618 -251 800 -7 17 -32 73 -55
125 -66 150 -184 371 -289 540 -93 151 -204 315 -219 323 -4 3 -70 -29 -147
-69z"/>
<path d="M11400 8750 c-29 -15 -35 -24 -35 -52 0 -32 -2 -34 -135 -100 -74
-37 -142 -67 -151 -68 -9 0 -24 9 -33 19 -20 22 -41 18 -80 -13 l-28 -22 41
-87 c23 -47 41 -89 41 -91 0 -3 11 -29 24 -59 22 -48 31 -56 84 -80 46 -20 66
-24 88 -18 79 23 321 126 336 142 9 10 24 43 33 72 l16 53 -42 98 c-54 127
-101 219 -114 222 -5 2 -26 -5 -45 -16z m43 -227 c4 -10 13 -36 21 -58 8 -21
14 -40 13 -40 -14 -8 -98 -45 -102 -45 -3 0 -27 -9 -53 -21 -26 -12 -58 -26
-72 -31 -14 -6 -33 -14 -42 -19 -34 -17 -49 -9 -68 37 -11 25 -18 50 -15 55 6
9 85 47 195 95 36 15 69 31 75 36 16 14 42 9 48 -9z"/>
<path d="M886 8278 c-21 -32 -66 -136 -66 -152 0 -7 30 -40 68 -72 37 -32 69
-61 72 -64 3 -3 30 -25 60 -50 30 -25 66 -55 80 -66 101 -87 186 -154 193
-154 5 0 7 -25 5 -56 l-3 -56 59 -24 c33 -13 63 -21 67 -17 4 5 26 55 49 113
23 58 51 125 62 149 20 43 20 45 2 59 -11 8 -39 23 -63 33 -45 20 -71 14 -71
-16 0 -26 -33 -26 -59 -1 l-25 26 27 55 c29 60 43 71 82 61 21 -5 24 -11 22
-44 -2 -35 0 -38 51 -64 30 -16 58 -26 63 -22 5 3 41 71 81 151 l73 145 -28
22 c-15 12 -44 28 -64 35 -34 13 -38 12 -48 -4 -5 -10 -18 -26 -27 -36 -18
-19 -22 -19 -128 1 -46 8 -133 22 -262 40 -40 6 -98 15 -129 20 -91 16 -127
13 -143 -12z m324 -212 c0 -22 -19 -30 -35 -16 -22 18 -18 30 10 30 15 0 25
-6 25 -14z"/>
<path d="M11635 8243 c-39 -10 -59 -32 -59 -64 -1 -29 -5 -33 -53 -48 -28 -9
-55 -20 -59 -24 -4 -4 -17 -7 -29 -7 -12 0 -25 -3 -28 -7 -4 -4 -36 -16 -71
-28 l-65 -22 -18 25 c-17 23 -21 24 -55 13 -63 -21 -63 -26 -17 -168 22 -70
45 -136 50 -145 5 -10 9 -29 9 -42 0 -13 8 -34 18 -45 16 -21 19 -22 72 -7 99
26 104 32 78 103 -10 28 -17 33 -44 33 -30 0 -33 3 -44 50 -14 58 -11 65 36
80 48 16 59 9 74 -45 14 -51 30 -63 63 -47 12 5 30 13 41 16 15 5 17 12 12 39
-20 92 -20 97 2 97 11 0 24 5 27 10 3 6 18 10 33 10 23 0 29 -6 40 -40 16 -52
15 -80 -2 -80 -24 0 -29 -19 -16 -68 17 -62 26 -73 53 -63 46 18 94 31 109 31
21 0 27 18 17 50 -36 115 -113 350 -122 373 -12 27 -16 29 -52 20z"/>
<path d="M11720 7688 c-14 -4 -47 -13 -73 -20 -55 -15 -55 -15 -90 -83 -26
-49 -26 -51 -11 -119 8 -38 11 -73 7 -77 -8 -7 -58 -12 -94 -10 -12 1 -19 15
-24 48 -6 41 -4 49 15 63 21 16 22 19 9 74 -10 45 -16 56 -28 50 -9 -3 -28
-11 -43 -16 -16 -5 -28 -14 -28 -19 0 -5 -12 -27 -26 -49 -23 -34 -25 -45 -19
-88 13 -93 29 -123 88 -165 52 -36 58 -38 88 -28 18 6 47 11 66 11 40 0 71 29
103 95 19 40 20 47 8 97 -18 67 -14 84 20 92 15 3 36 8 48 11 17 5 22 0 32
-33 17 -56 15 -80 -8 -92 -22 -12 -27 -60 -10 -104 12 -33 60 -36 88 -6 31 34
62 101 62 135 0 69 -28 149 -62 178 -56 47 -90 64 -118 55z"/>
<path d="M642 7667 c-10 -12 -37 -90 -82 -237 -12 -41 -26 -85 -31 -98 -5 -13
-9 -27 -9 -33 0 -11 41 -29 93 -39 42 -8 67 7 67 39 0 35 25 44 61 22 19 -11
59 -33 89 -49 30 -17 56 -35 58 -40 2 -6 -30 -20 -70 -32 -40 -12 -82 -26 -93
-30 -11 -5 -30 -12 -42 -15 -13 -4 -23 -13 -23 -21 0 -8 34 -50 75 -93 41 -43
75 -83 75 -90 0 -7 -33 -11 -105 -11 l-105 0 0 50 c0 57 -8 64 -86 75 -50 6
-52 6 -58 -22 -4 -15 -11 -46 -17 -68 -21 -85 -44 -197 -55 -272 -6 -38 -4
-43 18 -52 13 -5 46 -10 73 -12 l50 -4 10 40 c17 68 4 65 257 65 l231 0 -5
-45 c-5 -43 -4 -45 26 -54 17 -6 47 -13 68 -16 42 -8 53 5 64 76 4 24 17 87
30 139 35 137 35 135 -36 150 -67 14 -90 9 -90 -20 0 -35 -35 -23 -84 29 -47
51 -53 81 -14 81 11 0 27 4 36 9 9 4 35 12 56 15 l39 7 -6 -29 c-8 -38 5 -49
75 -68 48 -12 54 -12 66 3 6 9 12 24 12 32 0 8 4 28 10 45 60 192 70 231 66
241 -4 12 -92 45 -119 45 -7 0 -21 -16 -30 -35 -9 -19 -22 -35 -27 -35 -6 0
-32 12 -58 26 -26 15 -71 40 -101 57 -29 16 -89 51 -133 78 -44 27 -83 49 -88
49 -16 0 -22 41 -10 71 16 38 4 52 -60 73 -59 19 -55 19 -68 3z"/>
<path d="M11860 7221 c-17 -5 -25 -14 -25 -29 -1 -34 -21 -46 -88 -53 -67 -7
-187 -26 -221 -35 -17 -4 -24 1 -33 26 -11 29 -14 31 -50 25 -66 -11 -66 -11
-60 -63 3 -26 11 -92 17 -147 12 -108 21 -128 83 -179 l37 -29 132 11 c73 7
158 12 188 12 53 0 57 2 91 43 57 68 59 74 49 173 -13 123 -27 216 -35 237 -7
18 -39 21 -85 8z m2 -257 c2 -45 0 -58 -14 -65 -10 -5 -71 -14 -135 -19 -65
-5 -128 -12 -141 -16 -35 -10 -52 12 -52 67 0 57 -8 53 150 70 58 6 107 12
109 15 2 2 21 4 42 4 l37 0 4 -56z"/>
<path d="M11895 6668 c-2 -7 -5 -22 -7 -33 -4 -28 -58 -36 -213 -33 -127 3
-130 4 -133 26 -3 21 -8 23 -55 20 l-52 -3 4 -200 c2 -110 5 -203 8 -207 2 -5
40 -8 84 -8 l80 0 -3 57 c-3 52 -5 58 -28 63 -23 5 -25 10 -25 60 l0 55 38 9
c55 14 71 1 77 -65 l5 -54 50 0 50 0 5 60 5 60 55 0 55 0 0 -60 c0 -58 -1 -60
-28 -63 -28 -3 -28 -4 -25 -65 l3 -62 85 0 85 0 -3 200 c-4 266 -2 255 -63
255 -31 0 -51 -5 -54 -12z"/>
<path d="M11406 5778 c-2 -7 -9 -53 -16 -103 -6 -49 -16 -109 -21 -132 -21
-94 -12 -105 94 -122 43 -7 50 -6 61 13 7 11 14 38 15 59 1 32 -2 39 -25 47
-25 10 -26 13 -19 58 9 60 15 66 62 58 64 -11 66 -14 52 -90 l-11 -67 35 -57
c38 -62 54 -70 155 -79 49 -5 55 -3 101 36 42 35 50 47 60 97 19 98 15 134
-23 190 -29 43 -41 52 -71 56 -19 2 -39 2 -44 -2 -5 -3 -11 -29 -12 -59 -3
-48 0 -55 19 -62 19 -7 22 -16 22 -57 0 -62 -13 -74 -74 -66 -44 6 -46 8 -46
38 0 17 5 48 11 69 10 36 8 43 -23 94 -18 30 -41 59 -50 64 -15 8 -173 28
-226 29 -12 0 -24 -6 -26 -12z"/>
<path d="M11373 5305 c-29 -20 -55 -40 -58 -45 -5 -8 -16 -53 -31 -130 -6 -28
41 -128 66 -140 31 -16 67 -28 130 -44 36 -10 80 -21 98 -27 17 -5 47 -13 65
-18 17 -5 41 -12 52 -16 14 -4 39 6 80 33 l60 38 23 91 23 90 -28 52 c-15 29
-37 59 -48 66 -18 12 -148 43 -275 66 -25 4 -58 10 -75 14 -24 4 -41 -2 -82
-30z m146 -109 c31 -8 83 -20 116 -27 33 -7 74 -18 91 -25 l31 -13 -11 -52
c-14 -60 -23 -66 -75 -50 -20 6 -87 22 -149 37 -68 16 -116 32 -119 41 -3 7 0
34 7 58 14 51 21 53 109 31z"/>
<path d="M11219 4893 c-6 -16 -22 -62 -35 -103 -14 -41 -29 -84 -33 -95 -40
-95 -40 -100 2 -118 107 -47 121 -48 135 -9 23 60 23 70 1 85 -17 13 -20 21
-14 48 4 19 14 43 22 55 13 20 15 20 58 6 51 -16 55 -29 29 -102 -16 -45 -13
-92 8 -134 6 -11 14 -27 18 -35 8 -17 17 -22 94 -52 l59 -23 61 33 c59 31 62
35 89 105 32 87 34 122 6 181 -25 52 -34 60 -76 69 -31 7 -31 7 -47 -49 -17
-58 -15 -75 10 -75 17 0 18 -28 2 -80 -14 -44 -28 -49 -85 -28 -37 14 -41 30
-18 93 20 56 19 84 -9 141 l-24 49 -103 33 c-57 18 -112 32 -122 32 -10 0 -22
-12 -28 -27z"/>
<path d="M11224 4403 c-53 -129 -65 -143 -93 -109 -9 11 -10 20 -1 36 10 18 7
22 -32 40 -56 25 -67 25 -77 -3 -5 -13 -26 -59 -47 -102 l-37 -78 23 -19 c37
-30 71 -34 90 -10 12 14 24 19 38 15 17 -4 21 -12 19 -41 -2 -33 2 -38 37 -55
38 -18 39 -18 60 2 12 12 26 21 31 21 5 0 60 -25 122 -55 62 -31 118 -53 123
-50 14 9 50 90 50 112 0 10 -16 42 -35 72 -19 29 -35 55 -35 57 0 10 -99 150
-115 164 -16 13 -80 40 -98 40 -4 0 -15 -17 -23 -37z m97 -165 c22 -27 24 -38
7 -38 -23 1 -51 29 -45 45 8 20 15 19 38 -7z"/>
<path d="M1206 4013 c-3 -3 -6 -38 -6 -76 0 -77 -12 -96 -62 -97 -15 0 -30 -4
-33 -10 -3 -5 -20 -10 -36 -10 -23 0 -30 -4 -27 -17 3 -14 40 -33 121 -60 14
-4 17 -18 17 -89 0 -46 4 -84 8 -84 4 0 28 25 52 55 33 39 52 54 71 55 14 0
29 -3 32 -7 4 -3 29 -14 57 -24 57 -20 62 -13 28 41 -33 53 -48 81 -48 93 0 6
23 36 50 68 53 61 52 78 -3 60 -17 -5 -53 -13 -78 -16 l-45 -7 -37 61 c-40 63
-50 75 -61 64z"/>
<path d="M1613 3218 c4 -40 3 -78 -1 -84 -4 -6 -36 -22 -72 -36 -72 -29 -83
-49 -30 -60 116 -23 114 -21 126 -131 6 -59 18 -69 38 -32 43 77 69 107 90
102 44 -11 92 -24 114 -31 34 -11 28 11 -23 75 -25 32 -45 61 -45 66 0 4 16
32 35 60 31 47 44 83 30 83 -3 0 -33 -11 -67 -25 -34 -14 -67 -25 -74 -25 -7
0 -32 24 -56 54 -61 77 -72 74 -65 -16z"/>
<path d="M6295 3170 c-22 -11 -31 -18 -20 -16 53 12 105 27 105 31 0 12 -48 3
-85 -15z"/>
<path d="M6412 3079 c-57 -23 -101 -43 -99 -45 2 -2 52 10 110 26 59 17 114
30 123 30 22 0 12 25 -12 27 -10 2 -65 -16 -122 -38z"/>
<path d="M6531 2985 c-128 -52 -174 -75 -121 -61 324 84 354 93 333 104 -38
21 -75 13 -212 -43z"/>
<path d="M6794 2950 c-77 -27 -328 -131 -337 -140 -5 -4 94 19 220 51 125 32
238 59 251 59 33 0 27 18 -14 35 -45 19 -56 18 -120 -5z"/>
<path d="M6925 2861 c-49 -20 -156 -64 -237 -96 -204 -82 -192 -83 62 -10 136
40 303 86 334 94 43 10 42 24 -4 39 -53 16 -52 16 -155 -27z"/>
<path d="M6917 2713 c-175 -58 -316 -108 -314 -110 3 -2 94 17 203 42 110 24
271 61 359 81 88 19 167 38 175 41 10 4 -2 14 -35 29 -27 12 -54 23 -60 23 -5
0 -153 -48 -328 -106z"/>
<path d="M2116 2527 l6 -82 -71 -34 c-39 -18 -71 -37 -71 -41 0 -10 80 -30
119 -30 38 0 50 -21 59 -103 5 -40 12 -62 20 -62 7 0 28 29 46 65 38 72 34 70
139 56 33 -5 57 -4 57 1 0 5 -22 32 -50 61 -27 29 -50 56 -50 61 0 5 16 39 36
76 20 36 33 69 30 73 -4 3 -35 -8 -70 -26 -35 -18 -69 -32 -77 -32 -8 0 -37
23 -64 50 -27 28 -53 50 -58 50 -4 0 -5 -37 -1 -83z"/>
<path d="M6568 2593 c7 -3 16 -2 19 1 4 3 -2 6 -13 5 -11 0 -14 -3 -6 -6z"/>
<path d="M2636 2033 c15 -109 17 -104 -63 -143 -40 -19 -73 -38 -73 -42 0 -10
68 -28 106 -28 52 0 66 -19 73 -96 8 -88 26 -95 60 -22 37 81 44 86 99 77 26
-4 59 -10 73 -14 46 -11 40 10 -17 68 l-54 57 35 71 c20 39 35 75 33 79 -2 5
-36 -7 -77 -26 l-74 -35 -57 56 c-30 30 -59 55 -64 55 -4 0 -4 -26 0 -57z"/>
<path d="M3163 1489 l6 -87 -67 -33 c-37 -18 -69 -34 -71 -36 -13 -10 24 -25
78 -33 80 -11 91 -21 91 -81 0 -54 16 -107 29 -93 5 5 24 38 42 73 l34 63 50
-7 c91 -12 115 -13 115 -6 0 4 -22 31 -50 60 -27 29 -50 58 -50 64 0 5 14 38
32 73 18 35 29 67 25 71 -4 4 -37 -7 -73 -25 -35 -18 -67 -32 -70 -32 -3 0
-33 26 -66 58 l-61 57 6 -86z"/>
</g>
</svg>
